<?xml version="1.0" encoding="utf-8"?>
<!-- Generator: Adobe Illustrator 19.0.0, SVG Export Plug-In . SVG Version: 6.00 Build 0)  -->
<svg version="1.1" id="Layer_1" xmlns="http://www.w3.org/2000/svg" xmlns:xlink="http://www.w3.org/1999/xlink" x="0px" y="0px"
	 viewBox="0 0 225 295.1" style="enable-background:new 0 0 225 295.1;" xml:space="preserve">
<g>
	<g>
		<g>
			<polygon id="XMLID_143_" class="st0" points="112.4,0.7 0.6,88.8 0.6,233.9 224.4,234 224.4,88.8 			"/>
			<path class="st1" d="M225,234.5h-0.6L0,234.5v-146l0.2-0.2L112.4,0l0.3,0.3L225,88.6V234.5z M1.2,233.3l222.7,0.1V89.1L112.4,1.4
				L1.2,89V233.3z"/>
		</g>
		<path id="XMLID_140_" class="st2" d="M122,142.9c0,5.3-4.3,9.5-9.5,9.5l0,0c-5.3,0-9.5-4.3-9.5-9.5l0,0c0-5.3,4.3-9.5,9.5-9.5l0,0
			C117.8,133.4,122,137.6,122,142.9L122,142.9z"/>
		<g>
			<path id="XMLID_139_" class="st3" d="M182.3,142.9c0,38.5-31.2,69.8-69.8,69.8c-38.5,0-69.8-31.2-69.8-69.8
				c0-38.5,31.2-69.8,69.8-69.8C151,73.1,182.3,104.4,182.3,142.9z"/>
			<g>
				<g>
					<g>
						<g>
							<path class="st1" d="M221.4,235.5L3.6,235.4V89.9L112.4,3.3l0.7,0.6L221.4,90V235.5z M5.8,233.2l213.4,0.1V91.1L112.4,6.2
								L5.8,91V233.2z"/>
							<path class="st1" d="M224.7,234.5l-224.4,0v-146L112.4,0l112.4,88.6V234.5z M1.4,233.4l222.1,0V89.1L112.4,1.4L1.4,89.1
								V233.4z"/>
						</g>
						<rect id="XMLID_134_" y="231.7" class="st4" width="225" height="63.4"/>
					</g>
				</g>
				<g>
					<path id="XMLID_133_" class="st5" d="M91.8,197.3l-0.3,0.7l0,0c0,0,0,0,0,0c-0.9,3.4,1.1,6.9,4.5,7.7c3.4,0.9,6.9-1.1,7.7-4.5
						c0.1-0.5,0.2-1,0.2-1.5l7-47.5l-1.8-0.5l-17.2,45C91.9,197,91.9,197.1,91.8,197.3z"/>
					<path id="XMLID_132_" class="st5" d="M133.2,88.4l0.3-0.7l0,0c0,0,0,0,0,0c0.9-3.4-1.1-6.9-4.5-7.7c-3.4-0.9-6.8,1.1-7.7,4.5
						c-0.1,0.5-0.2,1-0.2,1.5l-7,47.5l1.8,0.5l17.2-45C133.1,88.8,133.2,88.6,133.2,88.4z"/>
					<path id="XMLID_131_" class="st5" d="M58.1,122.2l-0.7-0.3l0,0c0,0,0,0,0,0c-3.4-0.9-6.9,1.1-7.7,4.5c-0.9,3.4,1.1,6.9,4.5,7.7
						c0.5,0.1,1,0.2,1.5,0.2l47.5,7l0.5-1.8l-45-17.2C58.4,122.3,58.2,122.2,58.1,122.2z"/>
					<path id="XMLID_130_" class="st5" d="M166.9,163.6l0.7,0.3l0,0c0,0,0,0,0,0c3.4,0.9,6.9-1.1,7.7-4.5c0.9-3.4-1.1-6.9-4.5-7.7
						c-0.5-0.1-1-0.2-1.5-0.2l-47.5-7l-0.5,1.8l45,17.2C166.6,163.5,166.8,163.5,166.9,163.6z"/>
					<path id="XMLID_129_" class="st5" d="M59.4,166.7l-0.7,0.3l0,0c0,0,0,0,0,0c-3,1.8-4,5.7-2.3,8.7c1.8,3,5.7,4,8.7,2.3
						c0.4-0.3,0.8-0.6,1.2-0.9l38.5-28.6l-0.9-1.6l-44,19.6C59.7,166.6,59.5,166.7,59.4,166.7z"/>
					<path id="XMLID_128_" class="st5" d="M165.6,119l0.7-0.3l0,0c0,0,0,0,0,0c3-1.8,4-5.7,2.3-8.7c-1.8-3-5.7-4-8.7-2.3
						c-0.4,0.3-0.8,0.6-1.2,0.9l-38.5,28.6l0.9,1.6l44-19.6C165.3,119.2,165.5,119.1,165.6,119z"/>
					<path id="XMLID_127_" class="st5" d="M88.7,89.7L88.4,89l0,0c0,0,0,0,0,0c-1.8-3-5.7-4-8.7-2.3c-3,1.8-4,5.7-2.3,8.7
						c0.3,0.4,0.6,0.8,0.9,1.2l28.6,38.5l1.6-0.9l-19.6-44C88.8,90.1,88.7,89.9,88.7,89.7z"/>
					<path id="XMLID_126_" class="st5" d="M136.4,196l0.3,0.7l0,0c0,0,0,0,0,0c1.8,3,5.7,4,8.7,2.3c3-1.8,4-5.7,2.3-8.7
						c-0.3-0.4-0.6-0.8-0.9-1.2l-28.6-38.5l-1.6,0.9l19.6,44C136.2,195.7,136.3,195.8,136.4,196z"/>
					<path id="XMLID_125_" class="st5" d="M78.3,190l-0.5,0.6l0,0c0,0,0,0,0,0c-1.7,3-0.7,6.9,2.4,8.7c3,1.7,6.9,0.7,8.7-2.4
						c0.3-0.4,0.4-0.9,0.6-1.4l19.1-44l-1.6-0.9l-28.3,38.9C78.5,189.7,78.4,189.9,78.3,190z"/>
					<path id="XMLID_124_" class="st5" d="M146.7,95.7l0.5-0.6l0,0c0,0,0,0,0,0c1.7-3,0.7-6.9-2.4-8.7c-3-1.7-6.9-0.7-8.7,2.4
						c-0.3,0.4-0.4,0.9-0.6,1.4l-19.1,44l1.6,0.9l28.3-38.9C146.5,96,146.6,95.9,146.7,95.7z"/>
					<path id="XMLID_123_" class="st5" d="M65.4,108.7l-0.6-0.5l0,0c0,0,0,0,0,0c-3-1.7-6.9-0.7-8.7,2.4c-1.7,3-0.7,6.9,2.4,8.7
						c0.4,0.3,0.9,0.4,1.4,0.6l44,19.1l0.9-1.6L65.8,109C65.6,108.9,65.5,108.8,65.4,108.7z"/>
					<path id="XMLID_122_" class="st5" d="M159.7,177l0.6,0.5l0,0c0,0,0,0,0,0c3,1.7,6.9,0.7,8.7-2.4c1.7-3,0.7-6.9-2.4-8.7
						c-0.4-0.3-0.9-0.4-1.4-0.6l-44-19.1l-0.9,1.6l38.9,28.3C159.4,176.9,159.5,176.9,159.7,177z"/>
					<path id="XMLID_121_" class="st5" d="M55,152l-0.8,0.1l0,0c0,0,0,0,0,0c-3.4,0.9-5.4,4.4-4.5,7.8c0.9,3.4,4.4,5.4,7.8,4.4
						c0.5-0.1,1-0.3,1.4-0.6l44.6-17.6l-0.5-1.8L55.5,152C55.3,152,55.2,152,55,152z"/>
					<path id="XMLID_120_" class="st5" d="M170,133.7l0.8-0.1l0,0c0,0,0,0,0,0c3.4-0.9,5.4-4.4,4.5-7.8c-0.9-3.4-4.4-5.4-7.8-4.4
						c-0.5,0.1-1,0.3-1.4,0.6l-44.6,17.6l0.5,1.8l47.6-7.5C169.7,133.8,169.8,133.7,170,133.7z"/>
					<path id="XMLID_119_" class="st5" d="M103.3,85.4l-0.1-0.8l0,0c0,0,0,0,0,0c-0.9-3.4-4.4-5.4-7.8-4.5C92,81,90,84.5,91,87.9
						c0.1,0.5,0.3,1,0.6,1.4l17.6,44.6l1.8-0.5l-7.5-47.6C103.4,85.7,103.4,85.5,103.3,85.4z"/>
					<path id="XMLID_118_" class="st5" d="M121.7,200.4l0.1,0.8l0,0c0,0,0,0,0,0c0.9,3.4,4.4,5.4,7.8,4.5c3.4-0.9,5.4-4.4,4.5-7.8
						c-0.1-0.5-0.3-1-0.6-1.4l-17.6-44.6l-1.8,0.5l7.5,47.6C121.6,200,121.7,200.2,121.7,200.4z"/>
					<g>
						<path id="XMLID_117_" class="st5" d="M67.2,179.4l-0.6,0.5l0,0c0,0,0,0,0,0c-2.5,2.5-2.5,6.5,0,9c2.5,2.5,6.5,2.5,9,0
							c0.4-0.4,0.7-0.8,0.9-1.2l30-37.5l-1.3-1.3l-37.6,30.1C67.4,179.2,67.3,179.3,67.2,179.4z"/>
						<path id="XMLID_116_" class="st5" d="M157.9,106.4l0.6-0.5l0,0c0,0,0,0,0,0c2.5-2.5,2.5-6.5,0-9c-2.5-2.5-6.5-2.5-9,0
							c-0.4,0.4-0.7,0.8-0.9,1.2l-30,37.4l1.3,1.3l37.6-30.1C157.6,106.6,157.7,106.5,157.9,106.4z"/>
						<path id="XMLID_115_" class="st5" d="M76,97.5l-0.5-0.6l0,0c0,0,0,0,0,0c-2.5-2.5-6.5-2.5-9,0c-2.5,2.5-2.5,6.5,0,9
							c0.4,0.4,0.8,0.7,1.2,0.9l37.5,30l1.3-1.3L76.3,97.9C76.2,97.8,76.1,97.6,76,97.5z"/>
						<path id="XMLID_114_" class="st5" d="M149,188.2l0.5,0.6l0,0c0,0,0,0,0,0c2.5,2.5,6.5,2.5,9,0c2.5-2.5,2.5-6.5,0-9
							c-0.4-0.4-0.8-0.7-1.2-0.9l-37.5-30l-1.3,1.3l30.1,37.6C148.8,188,148.9,188.1,149,188.2z"/>
						<path id="XMLID_113_" class="st5" d="M54.6,136.6l-0.8-0.1v0c0,0,0,0,0,0c-3.5,0-6.3,2.8-6.3,6.3c0,3.5,2.8,6.3,6.3,6.3
							c0.5,0,1-0.1,1.5-0.2l47.7-5.3v-1.8l-47.9-5.3C55,136.6,54.8,136.6,54.6,136.6z"/>
						<path id="XMLID_112_" class="st5" d="M170.4,149.1l0.8,0.1v0c0,0,0,0,0,0c3.5,0,6.3-2.8,6.3-6.3c0-3.5-2.8-6.3-6.3-6.3
							c-0.5,0-1,0.1-1.5,0.2L122,142v1.8l47.9,5.3C170.1,149.1,170.2,149.1,170.4,149.1z"/>
						<path id="XMLID_111_" class="st5" d="M118.8,85l0.1-0.8h0c0,0,0,0,0,0c0-3.5-2.8-6.3-6.3-6.3c-3.5,0-6.3,2.8-6.3,6.3
							c0,0.5,0.1,1,0.2,1.5l5.3,47.7h1.8l5.3-47.9C118.7,85.3,118.7,85.1,118.8,85z"/>
						<path id="XMLID_110_" class="st5" d="M106.3,200.8l-0.1,0.8h0c0,0,0,0,0,0c0,3.5,2.8,6.3,6.3,6.3c3.5,0,6.3-2.8,6.3-6.3
							c0-0.5-0.1-1-0.2-1.5l-5.3-47.7h-1.8l-5.3,47.9C106.3,200.4,106.3,200.6,106.3,200.8z"/>
					</g>
				</g>
			</g>
		</g>
		<g>
			<path class="st4" d="M24.2,217.2c0.3-0.3,0.4-0.7,0.4-1.3c-1.1,0-1.9-0.7-1.9-1.7c0-0.9,0-1.1,0-2c0-1,0.7-1.7,1.8-1.7
				c1.2,0,2.9,1.7,2.9,3.7c0,2-1.4,4.3-4,4.3c-3,0-4.2-2.6-4.2-4.1c0-2.3,2-4,3-4c0.3,0,0.4,0.2,0.4,0.5c0,0.3-0.1,0.6-0.2,0.6
				c-0.3,0.2-0.4,0.5-0.4,1.1v3.6c0,0.6,0.4,1,0.6,1.1c0.2,0.1,0.5,0.2,0.6,0.2C23.6,217.6,23.9,217.5,24.2,217.2z M23.9,214.7
				c0,0.3,0.2,0.4,0.4,0.4c0.1,0,0.3-0.1,0.3-0.4c0-1.1,0-1.7,0-2.8c0-0.3-0.2-0.4-0.3-0.4c-0.2,0-0.4,0.1-0.4,0.4
				C23.9,212.8,23.9,213.7,23.9,214.7z"/>
			<path class="st4" d="M27.4,204.1c0,2.4-2.1,4-4.3,4c-1.7,0-4-1.5-4-4.2c0-1.4,0.9-2.6,1.7-3.2c-0.9-0.6-1.7-1.8-1.7-3.5
				c0-2,1.8-4,4-4c2.4,0,4.3,1.9,4.3,4c0,1.6-0.6,2.8-1.7,3.5C26.8,201.4,27.4,202.7,27.4,204.1z M23.4,199.8c0.3,0,0.6,0.1,1.1,0.2
				c0.2-0.2,0.2-0.5,0.3-0.9v-3.5c0-0.6-0.2-0.9-0.4-1.1c-0.3-0.2-0.6-0.4-1.1-0.4c-0.1,0-0.4,0.1-0.6,0.2c-0.2,0.2-0.6,0.5-0.6,1.1
				v3.6c0,0.4,0.2,0.8,0.3,1C22.7,199.8,23,199.8,23.4,199.8z M22.5,200.8c-0.2,0.2-0.6,0.5-0.6,1.1v3.6c0,0.6,0.2,0.9,0.4,1.1
				c0.1,0.1,0.5,0.3,1,0.3c0.4,0,0.6-0.1,0.9-0.3c0.3-0.3,0.4-0.6,0.4-1.1v-3.5c0-0.6-0.2-0.9-0.4-1.1c-0.3-0.2-0.6-0.4-1.1-0.4
				C23,200.7,22.7,200.7,22.5,200.8z"/>
			<path class="st4" d="M32.4,180.1c0.9,0,1.7,0.4,1.7,1.5c0,1.5-2.1,2.1-3.5,2.1c-2.8,0-7.3,0-7.3,0c-0.3,0-0.8,0.1-0.9,0.1
				c-0.2,0.2-0.6,0.5-0.6,1.1v3.5c0,0.6,0.2,0.9,0.4,1.1c0.3,0.2,0.6,0.4,1.1,0.4c0.1,0,0.4-0.1,0.6-0.2c0.2-0.2,0.5-0.4,0.6-0.9
				c-0.5,0-0.7-0.1-0.9-0.4c-0.2-0.2-0.4-0.6-0.4-1.1v-1.2c0-0.6,0.4-1,0.6-1.1c0.2-0.1,0.2-0.1,0.4-0.1l1.8,0
				c0.6,0,1.3,0.8,1.3,1.8c0,2.8-2.4,4.2-4.3,4.2c-1.6,0-4-1.5-4-4.2c0.1-2.5,2.2-4,4.3-4h7c0.5,0,1-0.5,1-0.9
				c0-0.4-0.2-0.9-0.7-1.3C31.2,180.3,31.8,180.1,32.4,180.1z M24,187.5c0,0.3,0.1,0.5,0.3,0.5c0.2,0,0.4-0.1,0.4-0.5v-1.1
				c0-0.4-0.1-0.5-0.4-0.5c-0.2,0-0.3,0.2-0.3,0.5V187.5z"/>
			<path class="st4" d="M19.2,176.4c0-1.8,1.6-4,4.2-4c2.6,0,4,2.5,4,4c0,2.4-1.7,4.2-4,4.2C20.6,180.6,19.2,178.4,19.2,176.4z
				 M24.7,174.8c0-0.6-0.2-0.9-0.4-1.1c-0.3-0.2-0.6-0.4-1.1-0.4c-0.1,0-0.4,0.1-0.6,0.2c-0.2,0.2-0.6,0.5-0.6,1.1v3.6
				c0,0.6,0.2,0.9,0.4,1.1c0.3,0.2,0.6,0.4,1.1,0.4c0.1,0,0.4-0.1,0.6-0.2c0.2-0.2,0.6-0.6,0.6-1.2V174.8z"/>
			<path class="st4" d="M15.2,169.1l12.3,0v1H15.3c-0.4,0-0.6,0.1-0.9,0.3c-0.2,0.2-0.4,0.4-0.4,0.9c0,0,0,1.5,0,2.1
				c0,0.2,0.1,0.7,0.4,0.9c0.2,0.2,0.5,0.3,0.9,0.3c0.2,0,0.3,0.3,0.3,0.5c0,0.2-0.1,0.4-0.3,0.4c-0.3,0-0.6,0-1.1-0.1
				c-1-0.3-2.3-1.2-2.3-3C11.9,170.9,13.2,169.1,15.2,169.1z"/>
			<path class="st4" d="M24.7,164l0-4.2c0-0.3-0.2-0.4-0.4-0.4c-0.2,0-0.4,0.1-0.4,0.4c0,0.4,0,0.7,0,1.1c0,0.6-0.1,1.2-0.6,1.2
				c-0.5,0-0.6-0.5-0.6-1.2c0-0.4,0-0.7,0-1.1c0-0.3-0.2-0.4-0.4-0.4c-0.1,0-0.4,0.1-0.4,0.4v4.2c0,0.2,0,0.3,0.1,0.4
				c0,0,0.1,0.1,0.2,0.1c0.1,0,0.3-0.2,0.5-0.2c0.2,0,0.5,0.2,0.5,0.4c0,0.7-1,1.3-1.5,1.3c-0.4,0-0.8-0.2-1.3-0.7
				c-0.8-0.9-1.2-1.6-1.2-3.3c0-0.8,0.8-3.8,3.2-3.8c0.2,0,0.4,0,0.5,0.2c0.2,0.2,0.2,0.4,0.4,0.4c0.2,0,0.3-0.1,0.4-0.4
				c0.1-0.2,0.1-0.2,0.6-0.2c0.2,0,0.6,0,1,0.3c1.3,0.6,2.1,2.1,2.1,3.5c0,2-2,4-3,4c-0.3,0-0.4-0.2-0.4-0.5s0.1-0.6,0.2-0.6
				C24.5,164.7,24.7,164.4,24.7,164z"/>
			<path class="st4" d="M27.4,144.8c0,2-1.5,4.2-4.1,4.2c-2.1,0-3.7-1.8-3.9-2.3c-0.1-0.2-0.1-0.4-0.1-0.5c0-0.8,1.1-0.3,1.4-0.7
				c0.1-0.2,0.2-0.6,0.2-0.6c0-0.1,0-0.5-0.2-0.6c-0.3-0.4-1.4,0.1-1.4-0.7c0-0.1,0-0.3,0.1-0.5c0.2-0.5,1.8-2.3,3.9-2.3
				C25.9,140.6,27.4,142.8,27.4,144.8z M22.3,142c-0.3,0.3-0.4,0.5-0.4,1.1c0.4,0,0.6,0.1,0.7,0.2c0.2,0.2,0.6,0.5,0.6,1.1l0,0.8
				c0,0.6-0.2,0.9-0.4,1.1c-0.1,0.1-0.4,0.4-0.9,0.4c0,0.6,0.4,1,0.6,1.2c0.2,0.1,0.5,0.2,0.6,0.2c0.5,0,0.8-0.1,1.1-0.4
				c0.3-0.3,0.4-0.5,0.4-1.1l0-3.6c0-0.6-0.4-1-0.6-1.1c-0.2-0.1-0.5-0.2-0.6-0.2C22.9,141.7,22.7,141.8,22.3,142z"/>
			<path class="st4" d="M31.4,142.7c0-0.4-0.2-0.9-0.6-1.3c0.5-0.3,1.1-0.4,1.6-0.4c0.9,0,1.7,0.5,1.7,1.6c-0.1,1.5-2.2,2.1-3.5,2
				c-1.6-0.1-2-0.1-2-0.1l0-1l1.7,0.1C30.9,143.6,31.4,143.1,31.4,142.7z"/>
			<path class="st4" d="M24.8,136.1l0.4-4.2c0-0.3-0.2-0.4-0.3-0.4c-0.2,0-0.4,0.1-0.4,0.4c0,0.4,0,0.7-0.1,1.1
				c-0.1,0.6-0.2,1.2-0.7,1.1c-0.5,0-0.6-0.6-0.5-1.2c0-0.4,0.1-0.7,0.1-1.1c0-0.3-0.2-0.4-0.4-0.4c-0.1,0-0.4,0.1-0.4,0.4l-0.4,4.2
				c0,0.2,0,0.3,0.1,0.4c0,0,0.1,0.1,0.2,0.1c0.1,0,0.3-0.2,0.5-0.2c0.2,0,0.5,0.2,0.5,0.4c-0.1,0.7-1.1,1.2-1.6,1.2
				c-0.4,0-0.8-0.3-1.3-0.8c-0.7-1-1-1.7-0.9-3.4c0.1-0.8,1.1-3.8,3.5-3.5c0.2,0,0.4,0,0.5,0.3c0.1,0.3,0.2,0.4,0.4,0.4
				c0.2,0,0.3-0.1,0.5-0.3c0.1-0.2,0.2-0.2,0.6-0.2c0.2,0,0.6,0.1,1,0.4c1.3,0.7,1.9,2.3,1.8,3.7c-0.2,2-2.4,3.8-3.3,3.7
				c-0.3,0-0.4-0.3-0.4-0.6c0-0.3,0.2-0.5,0.3-0.6C24.6,136.8,24.8,136.5,24.8,136.1z"/>
			<path class="st4" d="M34.8,135.5c-0.2,1.4-1.6,2.9-3.7,2.6c-2.2-0.3-2.9-2.2-2.7-3.7c0.2-1.3,1.6-2.9,3.7-2.6
				C34.3,132.1,35,134,34.8,135.5z M31.4,132.5c-0.2,0.1-0.6,0.3-0.6,0.8l-0.4,2.8c-0.1,0.5,0.1,0.7,0.2,0.9
				c0.2,0.2,0.4,0.4,0.8,0.4c0,0,0.3,0,0.5-0.1c0.1-0.1,0.4-0.2,0.6-0.5c-0.4-0.1-0.6-0.1-0.9-0.3c-0.4-0.3-0.4-0.6-0.3-1l0.2-1.3
				c0.1-0.4,0.2-0.8,0.6-0.9c0.4-0.1,0.5-0.1,0.9,0c-0.1-0.2-0.2-0.3-0.3-0.4c-0.2-0.2-0.4-0.3-0.8-0.4
				C31.8,132.4,31.5,132.4,31.4,132.5z M32.2,136.2c0.2,0,0.3-0.2,0.3-0.3l0.2-1.4c0-0.2,0.1-0.4-0.2-0.4c-0.2,0-0.3,0.3-0.3,0.4
				l-0.2,1.4C32,135.9,32,136.1,32.2,136.2z"/>
			<path class="st4" d="M23.3,125c-0.2,0.7,0,0.8,0.2,1c0.1,0.1,0.1,0.4,0,0.7c-0.1,0.3-0.2,0.5-0.5,0.4c-0.9-0.2-2.5-2.3-1.9-4.6
				c0.4-1.4,1.3-2.3,2.5-2.8c0.8-0.5,2.2-0.2,2.7-0.1c0.4,0.1,0.6,0.2,0.9,0.4c0.2-0.2,0.4-0.4,0.5-0.9l0.9-3.5
				c0.2-0.6-0.1-1-0.3-1.3c-0.1-0.1-0.2-0.2-0.6-0.3c-0.4-0.1-0.7-0.1-0.9-0.1c-0.3,0.1-0.8,0.4-0.9,0.9c0,0-0.4,1.5-0.6,2.3
				c-0.2,0.6-1.1,1-1.8,0.8c-0.3-0.1-0.6-0.3-0.7-0.6c-0.2-0.5-0.2-0.7,0-1.3c0.5-2.1,3-3.6,5.2-3c2.4,0.6,3.3,3,2.9,4.9
				c-0.5,1.9-1.6,2.5-2.6,2.9c0.8,1,1.2,2.2,0.9,3.7c-0.6,2.2-3,3.3-3.9,3.1c-0.3-0.1-0.4-0.3-0.3-0.6c0.1-0.3,0.2-0.5,0.4-0.6
				c0.3-0.1,0.6-0.4,0.7-1l0.9-3.5c0.2-0.6-0.1-1-0.3-1.3c-0.1-0.1-0.5-0.3-0.5-0.3c-0.5-0.1-0.8-0.1-1.2,0.1
				c-0.3,0.2-0.6,0.4-0.7,1L23.3,125z"/>
			<path class="st4" d="M26.2,106.6c0.6-1.4,2.7-3.2,5.4-2.1c2.3,1,3,3.6,2.2,5.6c-0.2,0.6-0.3,0.8-0.8,1c-0.3,0.1-0.6,0.1-0.9,0
				c-0.7-0.3-1.3-1.2-1-1.8c0.3-0.7,1-2.2,1-2.2c0.2-0.6,0-1-0.1-1.3c-0.1-0.1-0.4-0.3-0.7-0.5c-0.2-0.1-0.5-0.2-0.7-0.1
				c-0.3,0.1-0.8,0.3-1,0.8l-1.4,3.3c-0.2,0.6-0.2,1.3-0.1,1.6c0.4,1,1.4,0.9,1.2,1.4c-0.1,0.2-0.3,0.3-0.5,0.2
				c-0.4-0.1-0.8-0.6-1.3-1C26.3,110.7,25.3,108.8,26.2,106.6z"/>
			<path class="st4" d="M31.9,100.4c-0.4,0.6-0.2,0.7-0.1,1.1c0,0.1,0,0.4-0.2,0.6c-0.1,0.2-0.4,0.4-0.6,0.2c-0.8-0.5-1.7-3-0.5-4.9
				c0.8-1.3,1.9-1.9,3.2-2c0.9-0.3,2.1,0.4,2.6,0.7c0.4,0.2,0.5,0.3,0.8,0.6c0.3-0.1,0.5-0.3,0.8-0.7l1.9-3.1c0.3-0.5,0.2-1,0.1-1.3
				c-0.1-0.2-0.2-0.3-0.5-0.5c-0.4-0.2-0.6-0.3-0.8-0.3c-0.3,0-0.9,0.1-1.2,0.6c0,0-0.8,1.3-1.2,2c-0.3,0.5-1.3,0.6-2,0.3
				c-0.3-0.2-0.5-0.4-0.5-0.7c-0.1-0.5,0-0.7,0.3-1.2c1.1-1.9,3.9-2.6,5.8-1.4c2.1,1.3,2.3,3.8,1.4,5.5c-1,1.7-2.2,1.9-3.3,2.1
				c0.5,1.2,0.6,2.5-0.2,3.8c-1.2,2-3.8,2.3-4.6,1.9c-0.3-0.2-0.2-0.4-0.1-0.7c0.1-0.2,0.4-0.4,0.5-0.4c0.4,0,0.7-0.2,1-0.7l1.9-3.1
				c0.3-0.5,0.2-1,0.1-1.3c-0.1-0.2-0.4-0.4-0.4-0.4c-0.5-0.3-0.7-0.3-1.1-0.3c-0.4,0.1-0.7,0.2-1,0.7L31.9,100.4z"/>
			<path class="st4" d="M41.9,84c0.5,0.4,0.8-0.7,2.3-1.4c1.1-0.6,2-0.9,2.9-0.2c1.5,1.2,1.1,4.1,0.5,4.9c3.7,3.1,4.5,2.3,5.6,3.2
				c-1.1,1.3-1.6,1.4-1.6,1.4l-4.6-3.9C46,89,43.8,89.7,42.5,89c-0.2-0.1-0.4-0.2-0.5-0.4c-0.5-0.4-0.8-1-0.2-1.8l1-1.2
				c0.6-0.7,1.8-0.7,2.6-0.1l0.7-0.8c0.4-0.5,0.8-1.1,0.4-1.5c-0.6-0.5-1.3,0.1-2,0.5c-1.2,0.6-2.4,2.1-3.4,1.3
				c-0.6-0.5-1.1-1.4-0.2-2.5c0.9-1.1,2.3-0.8,2.7-0.4c0.2,0.1,0.1,0.3,0,0.4c-0.1,0.1-0.2,0.2-0.4,0.2c-0.2,0-0.6-0.1-0.8,0.2
				l-0.5,0.6C41.9,83.5,41.6,83.8,41.9,84z M44.3,86c-0.1,0-0.2,0-0.4,0.2l-1.1,1.3c-0.1,0.2-0.2,0.3-0.2,0.4c0,0,0,0.2,0.1,0.2
				c0.1,0.1,0.2,0.1,0.2,0.1c0.1,0,0.2-0.1,0.3-0.2l1.4-1.6C44.8,86.3,44.5,86.1,44.3,86z"/>
			<path class="st4" d="M47.2,75.5c1.1-1,3.8-1.9,5.8,0.2c1.8,1.8,1.4,4.5-0.2,6c-0.5,0.4-0.6,0.6-1.1,0.6c-0.3,0-0.6-0.1-0.8-0.4
				c-0.5-0.5-0.7-1.6-0.2-2c0.6-0.6,1.7-1.6,1.7-1.6c0.4-0.4,0.4-0.9,0.4-1.2c0-0.2-0.2-0.5-0.5-0.7c-0.2-0.2-0.4-0.3-0.6-0.4
				c-0.3-0.1-0.8-0.1-1.3,0.3l-2.6,2.4c-0.4,0.4-0.7,1.2-0.7,1.4c0,1.1,1,1.4,0.6,1.8c-0.2,0.2-0.4,0.1-0.6-0.1
				c-0.3-0.3-0.5-0.9-0.8-1.4C45.8,79.3,45.6,77.1,47.2,75.5z"/>
			<path class="st4" d="M55.7,74.6c0.4,0,0.8-0.1,1.3-0.5c-0.7-0.9-0.6-1.9,0.2-2.6c0.7-0.6,0.8-0.7,1.6-1.2
				c0.8-0.6,1.8-0.5,2.4,0.3c0.8,1,0.4,3.3-1.2,4.6c-1.6,1.2-4.2,1.5-5.8-0.5c-1.9-2.4-0.5-5,0.6-5.9c1.8-1.4,4.4-0.8,5-0.1
				c0.2,0.2,0.1,0.5-0.1,0.7c-0.2,0.2-0.5,0.3-0.6,0.2c-0.4-0.1-0.7,0-1.2,0.3l-2.9,2.2c-0.5,0.4-0.5,0.9-0.5,1.2
				c0,0.2,0.2,0.5,0.2,0.6C55.1,74.4,55.4,74.5,55.7,74.6z M57.6,72.8c-0.2,0.2-0.2,0.4-0.1,0.5c0.1,0.1,0.3,0.2,0.5,0
				c0.8-0.6,1.4-1.1,2.2-1.7c0.2-0.2,0.2-0.4,0.1-0.5c-0.1-0.1-0.3-0.2-0.5,0C59.1,71.7,58.4,72.2,57.6,72.8z"/>
			<path class="st4" d="M72.6,66.7c-0.3-0.1-0.6-0.3-0.7-0.6c-0.4-0.7-0.3-1.7,0.3-2c0.7-0.4,2.1-1.1,2.1-1.1
				c0.5-0.3,0.7-0.8,0.7-1.1c0-0.2,0-0.3-0.3-0.8c-0.2-0.3-0.3-0.4-0.5-0.5c-0.3-0.1-0.8-0.3-1.3,0l-3.2,1.8
				c-0.4,0.2-0.6,0.5-0.7,0.7c0.2,0.2,0.4,0.5,0.6,0.8c1.3,2.4,0.3,4.7-1.7,5.8c-2.2,1.2-4.6,0-5.6-1.8c-0.8-1.5-0.6-4.2,1.8-5.5
				c1.2-0.7,2.7-0.5,3.7-0.1c0.3-1,0.5-2.2,2.2-3.2c1.6-0.9,4.2-0.5,5.4,1.6c1.1,2.1,0.3,4.7-1.6,5.8C73.3,66.8,73.1,66.8,72.6,66.7
				z M68.5,63.9c-0.3-0.1-0.8-0.3-1.3,0L64,65.6c-0.5,0.3-0.7,0.7-0.8,0.9c-0.1,0.2,0,0.6,0.2,1c0.2,0.3,0.4,0.5,0.7,0.7
				c0.4,0.1,0.7,0.1,1.2-0.2l3-1.7c0.5-0.3,0.7-0.6,0.8-0.9c0.1-0.4,0-0.7-0.2-1.2C68.9,64.2,68.6,64,68.5,63.9z"/>
			<path class="st4" d="M78.9,55.2c1.4-0.5,4.2-0.3,5.3,2.5c0.9,2.4-0.5,4.6-2.5,5.4c-0.6,0.2-0.8,0.3-1.3,0.1
				c-0.3-0.1-0.5-0.4-0.6-0.7c-0.3-0.7,0-1.7,0.6-1.9c0.8-0.3,2.2-0.8,2.2-0.8c0.6-0.2,0.8-0.7,0.8-1c0-0.2,0-0.5-0.2-0.9
				c-0.1-0.3-0.2-0.5-0.4-0.6c-0.3-0.2-0.7-0.4-1.3-0.2l-3.3,1.2c-0.6,0.2-1.1,0.8-1.2,1c-0.4,1,0.3,1.7-0.2,1.9
				c-0.3,0.1-0.4,0-0.5-0.3c-0.1-0.4-0.1-1-0.2-1.6C76.1,58.2,76.7,56,78.9,55.2z"/>
			<path class="st4" d="M75.8,51.1c-0.1,0.3-0.1,0.6,0,0.9c0.1,0.2,0.2,0.3,0.3,0.4c0.2,0.1,0.5,0.3,1,0.2c0,0,1.1-0.4,1.7-0.6
				c0.4-0.1,1.1,0.3,1.3,0.8c0.1,0.2,0.1,0.5-0.1,0.7c-0.2,0.3-0.4,0.4-0.8,0.6c-1.6,0.5-3.6-0.3-4.2-2.1c-0.6-2.1,0.8-3.6,2.2-4.1
				c1.7-0.5,3.3,0.6,3.5,1.3c0.1,0.3,0,0.4-0.2,0.5c-0.2,0.1-0.4,0-0.5,0c-0.2-0.2-0.5-0.2-1-0.1c-0.6,0.2-2.6,0.8-2.6,0.8
				C76.1,50.7,75.9,50.9,75.8,51.1z"/>
			<path class="st4" d="M94.7,53.3c-0.7,0.1-0.7,0.3-0.9,0.6c-0.1,0.1-0.3,0.2-0.6,0.3c-0.3,0-0.5,0-0.6-0.4
				c-0.1-0.9,1.3-3.2,3.5-3.5c1.5-0.2,2.7,0.3,3.5,1.2c0.8,0.5,1,1.9,1.1,2.5c0.1,0.4,0.1,0.6,0,1c0.3,0.1,0.5,0.2,1,0.2l3.6-0.5
				c0.6-0.1,0.9-0.5,1-0.8c0.1-0.2,0.1-0.3,0.1-0.6c-0.1-0.4-0.2-0.7-0.3-0.8c-0.2-0.2-0.6-0.6-1.2-0.5c0,0-1.6,0.2-2.4,0.3
				c-0.6,0.1-1.3-0.6-1.4-1.4c0-0.3,0-0.6,0.2-0.9c0.3-0.4,0.6-0.4,1.2-0.5c2.2-0.3,4.5,1.4,4.8,3.7c0.3,2.5-1.5,4.2-3.4,4.5
				c-2,0.3-2.9-0.5-3.7-1.3c-0.6,1.1-1.6,2-3.1,2.2c-2.3,0.3-4.2-1.5-4.3-2.4c0-0.3,0.2-0.5,0.5-0.5s0.6,0,0.6,0.1
				c0.3,0.3,0.6,0.4,1.2,0.3l3.6-0.5c0.6-0.1,0.9-0.5,1-0.8c0.1-0.2,0.1-0.5,0.1-0.6c-0.1-0.5-0.2-0.8-0.5-1.1
				c-0.3-0.2-0.6-0.4-1.2-0.3L94.7,53.3z"/>
			<path class="st4" d="M113.7,50.9c0,0.6,1,0.2,2.5,0.9c1.2,0.5,2,1,2,2.2c0,1.9-2.5,3.5-3.5,3.4c-0.1,4.8,1,4.9,1,6.4
				c-1.7,0-2.1-0.4-2.1-0.4l0.1-6c-1.3-0.1-3.2-1.4-3.4-2.9c0-0.2-0.1-0.4-0.1-0.7c0-0.7,0.3-1.3,1.3-1.3l1.6,0c0.9,0,1.7,1,1.7,2
				l1.1,0c0.6,0,1.4-0.1,1.4-0.6c0-0.7-0.9-1-1.6-1.3c-1.2-0.5-3.2-0.6-3.1-1.9c0-0.8,0.4-1.7,1.8-1.7c1.4,0,2.1,1.3,2,1.9
				c0,0.2-0.2,0.3-0.3,0.3c-0.1,0-0.3-0.1-0.4-0.2c-0.1-0.2-0.3-0.5-0.7-0.5l-0.8,0C114.1,50.6,113.7,50.6,113.7,50.9z M113.7,54.1
				c-0.1,0-0.2-0.2-0.4-0.2l-1.7,0c-0.2,0-0.3,0-0.4,0.1c0,0-0.1,0.1-0.1,0.2c0,0.1,0,0.2,0.1,0.2c0.1,0,0.2,0.1,0.4,0.1l2.1,0
				C113.8,54.6,113.8,54.2,113.7,54.1z"/>
			<path class="st4" d="M113.6,44.2c-0.2,0.2-0.3,0.5-0.4,0.8c0,0.2,0.1,0.4,0.1,0.5c0.1,0.2,0.4,0.5,0.8,0.5c0,0,1.2,0.1,1.8,0.1
				c0.4,0,0.9,0.7,0.8,1.3c0,0.2-0.1,0.5-0.3,0.6c-0.3,0.2-0.5,0.3-1,0.2c-1.7-0.1-3.2-1.7-3-3.5c0.3-2.2,2.1-3,3.6-2.9
				c1.8,0.1,2.8,1.8,2.7,2.6c0,0.3-0.2,0.4-0.3,0.4c-0.2,0-0.4-0.2-0.5-0.2c-0.2-0.3-0.4-0.4-0.9-0.4c-0.6,0-2.7-0.2-2.7-0.2
				C114.1,43.9,113.9,44,113.6,44.2z"/>
			<path class="st4" d="M118.5,60.9c-1-0.1-1.6-0.9-1.5-1.7c0.1-0.9,0.9-1.6,1.8-1.5c0.7,0.1,1.6,0.8,1.5,1.8
				C120.2,60.1,119.6,61,118.5,60.9z M118.8,59.7c0.3,0,0.4-0.2,0.4-0.3c0-0.1-0.1-0.3-0.4-0.4c-0.1,0-0.2,0-0.5,0
				c-0.3,0-0.4,0.2-0.4,0.3c0,0.2,0.1,0.4,0.4,0.4C118.5,59.7,118.6,59.7,118.8,59.7z"/>
			<path class="st4" d="M130.5,64.2c-0.1,0.9-0.7,1.7-1.8,1.5c-1.5-0.2-1.8-2.4-1.6-3.7c0.4-2.7,1.1-7.2,1.1-7.2
				c0-0.3,0.1-0.8,0-0.9c-0.1-0.3-0.4-0.7-1-0.8l-3.5-0.5c-0.6-0.1-0.9,0-1.2,0.3c-0.3,0.3-0.4,0.5-0.5,1.1c0,0.1,0,0.4,0.1,0.6
				c0.1,0.2,0.3,0.5,0.8,0.7c0.1-0.5,0.2-0.7,0.5-0.9c0.3-0.2,0.6-0.4,1.2-0.3l1.2,0.2c0.6,0.1,0.9,0.5,1,0.8c0.1,0.2,0,0.3,0,0.4
				l-0.2,1.8c-0.1,0.6-1,1.2-2,1.1c-2.8-0.4-3.8-3-3.5-4.9c0.3-1.6,2-3.7,4.7-3.3c2.5,0.5,3.6,2.8,3.3,4.8l-1,6.9
				c-0.1,0.5,0.3,1.1,0.8,1.2c0.4,0.1,0.9-0.1,1.4-0.5C130.5,63,130.6,63.6,130.5,64.2z M124.4,54.8c-0.3,0-0.5,0-0.6,0.2
				s0,0.4,0.4,0.4l1.1,0.2c0.4,0.1,0.5-0.1,0.5-0.3s-0.2-0.3-0.5-0.4L124.4,54.8z"/>
			<path class="st4" d="M124.1,59.3l0.9,0.2c0,0-0.1,0.4-0.4,2c-0.3,1.3-1.3,3.3-2.8,3c-1.1-0.2-1.3-1.1-1.2-2
				c0.1-0.5,0.4-1.1,0.8-1.5c0.4,0.5,0.7,0.8,1.2,0.9c0.4,0.1,1-0.3,1.1-0.8l0,0L124.1,59.3z"/>
			<path class="st4" d="M137.7,55.5l-3.5-1c-0.6-0.2-1,0.1-1.3,0.3c-0.1,0.1-0.2,0.2-0.3,0.6c-0.1,0.5-0.1,0.7,0.1,1.1
				c0.2,0.3,0.6,0.6,1,0.7c1.3,0.4,3.5,1,3.5,1c0.5,0.1,0.8,0,1.1-0.2c0.1-0.1,0.4-0.1,0.7,0c0.3,0.1,0.5,0.2,0.4,0.5
				c-0.2,0.9-2.4,2.4-4.6,1.8c-1.4-0.4-3.6-2.5-2.9-5c0.7-2.5,3.7-3.4,5.1-3c2.2,0.6,3.3,3,3,3.9c-0.1,0.3-0.3,0.3-0.6,0.3
				c-0.3-0.1-0.5-0.3-0.6-0.4C138.5,55.9,138.3,55.7,137.7,55.5z"/>
			<path class="st4" d="M137.5,47.4c-0.3,0.2-0.4,0.4-0.6,0.7c0,0.2,0,0.4,0,0.5c0.1,0.2,0.2,0.6,0.7,0.7c0,0,1.1,0.4,1.7,0.6
				c0.4,0.1,0.7,0.9,0.5,1.4c-0.1,0.2-0.2,0.4-0.5,0.5c-0.4,0.2-0.5,0.1-1,0c-1.6-0.5-2.7-2.4-2.1-4.2c0.8-2.1,2.8-2.4,4.2-1.9
				c1.7,0.6,2.3,2.5,2,3.2c-0.1,0.3-0.3,0.3-0.4,0.3c-0.2-0.1-0.4-0.3-0.4-0.3c-0.1-0.3-0.3-0.5-0.7-0.6c-0.6-0.2-2.5-0.9-2.5-0.9
				C138,47.3,137.7,47.3,137.5,47.4z"/>
			<path class="st4" d="M141.5,62.5c-1-0.4-1.2-1.4-1-2.1c0.4-0.8,1.3-1.3,2.2-1c0.7,0.3,1.3,1.2,0.9,2.1
				C143.3,62.2,142.5,62.9,141.5,62.5z M141.4,60.8c0-0.1,0.2-0.3,0.5-0.2c0.3,0.1,0.4,0.1,0.5,0.2c0.3,0.1,0.3,0.3,0.2,0.4
				c-0.1,0.1-0.2,0.3-0.5,0.2c-0.3-0.1-0.4-0.1-0.4-0.2C141.4,61.2,141.4,61,141.4,60.8z M143.2,57.8c-1-0.4-1.3-1.3-1-2.1
				c0.3-0.9,1.3-1.3,2.2-1c0.7,0.3,1.3,1.2,0.9,2.1C145.1,57.5,144.3,58.2,143.2,57.8z M143.2,56.1c0-0.1,0.2-0.3,0.5-0.2
				c0.3,0.1,0.4,0.1,0.5,0.2c0.3,0.1,0.3,0.3,0.2,0.4c-0.1,0.1-0.2,0.3-0.5,0.2s-0.4-0.1-0.4-0.2C143.1,56.5,143.1,56.3,143.2,56.1z
				"/>
			<path class="st4" d="M147.2,59.4c0,0,2,1.5,3.5,2.1c1.5,0.7,4,1.4,4,1.4l-0.7,1.5c0,0-2.1-1.5-3.6-2.2c-1.4-0.7-3.8-1.3-3.8-1.3
				L147.2,59.4z"/>
			<path class="st4" d="M161.8,72.9c-0.1-0.3,0-0.6,0.2-0.9c0.4-0.6,1.4-1,1.9-0.6c0.7,0.5,1.9,1.4,1.9,1.4c0.5,0.3,1,0.2,1.3,0.1
				c0.2-0.1,0.3-0.2,0.6-0.6c0.2-0.3,0.2-0.4,0.2-0.6c0-0.3-0.1-0.8-0.6-1.2l-3-2.1c-0.4-0.2-0.7-0.3-1-0.3
				c-0.1,0.3-0.3,0.6-0.4,0.9c-1.6,2.3-4.1,2.3-5.9,1.1c-2.1-1.4-2-4.1-0.9-5.8c1-1.4,3.5-2.4,5.8-0.9c1.2,0.8,1.7,2.2,1.7,3.3
				c1-0.2,2.2-0.5,3.9,0.6c1.5,1,2.3,3.5,1,5.5c-1.3,2-4.1,2.3-5.9,1.1C162.1,73.6,162,73.4,161.8,72.9z M162.6,67.9
				c0-0.3-0.1-0.8-0.6-1.2l-3-2.1c-0.5-0.3-0.9-0.3-1.2-0.3c-0.2,0-0.6,0.3-0.8,0.6c-0.2,0.3-0.3,0.6-0.3,0.9c0.1,0.4,0.2,0.6,0.7,1
				l2.9,2c0.5,0.3,0.8,0.3,1.2,0.3c0.4-0.1,0.6-0.3,0.9-0.7C162.4,68.4,162.5,68.1,162.6,67.9z"/>
			<path class="st4" d="M163.9,80.6l5.5-5.4c0.3-0.3,0.5-0.2,0.7,0c0.2,0.2,0.3,0.5,0.2,0.7c-0.1,0.4,0.1,0.7,0.5,1.1l2.5,2.6
				c0.4,0.4,0.9,0.4,1.2,0.4c0.2,0,0.5-0.2,0.5-0.3c0.4-0.4,0.5-0.6,0.5-1c0-0.4-0.1-0.7-0.5-1.1l-2.5-2.6c-0.5-0.5-0.6-0.4-1-0.4
				c-0.1,0-0.4-0.1-0.6-0.3c-0.2-0.2-0.3-0.4-0.1-0.7c0.7-0.7,3.3-0.9,4.9,0.7c1,1.1,1.3,2.3,1.1,3.6c0,0.9-0.9,2-1.3,2.3
				c-0.3,0.3-0.4,0.4-0.8,0.6c0,0.3,0.2,0.6,0.5,0.9l2.5,2.6c0.4,0.4,0.9,0.4,1.2,0.4c0.2,0,0.3-0.1,0.6-0.3
				c0.3-0.3,0.4-0.5,0.5-0.7c0-0.3,0.1-0.9-0.3-1.3c0,0-1.1-1.1-1.7-1.7c-0.4-0.4-0.3-1.4,0.2-2c0.2-0.2,0.5-0.3,0.8-0.3
				c0.5,0,0.7,0.2,1.1,0.6c1.5,1.5,1.5,4.4-0.1,6c-1.8,1.7-4.3,1.3-5.6-0.1c-1.4-1.4-1.3-2.6-1.2-3.7c-1.3,0.2-2.6-0.1-3.6-1.1
				c-0.9-0.9-1.3-1.7-1.3-2.9c-0.9,0.8-3,3-3,3c-0.5,0.5-0.5,1.4,0.2,2.1l6.1,6.3l0.4,0.4c0.9,0.9,1.7,0.8,2.2,0.4
				c0.2-0.2,0.5-0.1,0.6,0.1c0.2,0.2,0.2,0.4,0,0.6c-0.4,0.4-1.3,1.3-1.3,1.3c-0.9,0.9-1.8,0.7-2.8-0.4l-6.2-6.3l-1.1-1.1
				C163.4,82.8,163.2,81.3,163.9,80.6z"/>
			<path class="st4" d="M184.2,75.6c-0.3,0-0.6,0.1-0.9,0.3c-0.1,0.1-0.2,0.3-0.3,0.4c-0.1,0.2-0.1,0.6,0.2,1c0,0,0.7,0.9,1.1,1.4
				c0.3,0.3,0.1,1.1-0.3,1.5c-0.2,0.2-0.4,0.2-0.7,0.2c-0.4-0.1-0.5-0.2-0.8-0.5c-1.1-1.3-1-3.5,0.5-4.6c1.8-1.3,3.7-0.5,4.6,0.6
				c1.1,1.4,0.6,3.3,0,3.8c-0.2,0.2-0.4,0.1-0.5,0c-0.1-0.2-0.2-0.4-0.2-0.5c0.1-0.3,0-0.6-0.3-0.9c-0.4-0.5-1.7-2.1-1.7-2.1
				C184.7,75.7,184.5,75.6,184.2,75.6z"/>
			<path class="st4" d="M184.5,97.1c0.1-0.3,0.3-0.6,0.5-0.8c0.6-0.4,1.7-0.4,2,0.1c0.4,0.7,1.3,2,1.3,2c0.3,0.5,0.8,0.6,1.1,0.6
				c0.2,0,0.3,0,0.8-0.3c0.3-0.2,0.4-0.3,0.5-0.5c0.1-0.3,0.2-0.8-0.1-1.3l-2-3.1c-0.2-0.4-0.5-0.5-0.8-0.6
				c-0.2,0.3-0.5,0.5-0.8,0.7c-2.3,1.5-4.7,0.6-5.9-1.2c-1.4-2.1-0.3-4.6,1.4-5.7c1.5-1,4.2-0.9,5.7,1.4c0.8,1.2,0.7,2.6,0.3,3.7
				c1,0.2,2.2,0.3,3.4,2c1,1.5,0.8,4.2-1.2,5.5c-2,1.3-4.7,0.6-5.9-1.2C184.6,97.8,184.5,97.6,184.5,97.1z M187.1,92.8
				c0.1-0.3,0.2-0.8-0.1-1.3l-2-3.1c-0.3-0.5-0.7-0.7-1-0.7c-0.2,0-0.6,0-1,0.3c-0.3,0.2-0.5,0.4-0.6,0.8c-0.1,0.4,0,0.7,0.3,1.2
				l1.9,2.9c0.3,0.5,0.6,0.6,1,0.7c0.4,0,0.7,0,1.1-0.3C186.7,93.2,187,93,187.1,92.8z"/>
			<path class="st4" d="M181.7,100.7c-0.5-0.9-0.1-1.8,0.7-2.2c0.8-0.4,1.8-0.1,2.2,0.7c0.3,0.6,0.2,1.7-0.7,2.2
				C183.4,101.6,182.3,101.6,181.7,100.7z M183,100.3c0.1,0.3,0.4,0.3,0.5,0.2c0.1-0.1,0.3-0.2,0.1-0.5c-0.1-0.1-0.1-0.2-0.2-0.5
				c-0.1-0.3-0.4-0.2-0.5-0.2c-0.1,0.1-0.3,0.3-0.1,0.5C182.8,99.9,182.8,100,183,100.3z"/>
			<path class="st4" d="M193.3,95c-0.5-0.9-0.1-1.8,0.7-2.2c0.8-0.4,1.8-0.1,2.2,0.7c0.3,0.6,0.2,1.7-0.7,2.2
				C194.9,96,193.8,96,193.3,95z M194.4,93.7c0.1-0.1,0.3-0.1,0.5,0.2c0.1,0.3,0.2,0.3,0.2,0.5c0.1,0.3,0,0.4-0.1,0.5
				c-0.1,0.1-0.4,0.1-0.5-0.2s-0.2-0.3-0.2-0.4C194.2,94,194.3,93.8,194.4,93.7z"/>
			<path class="st4" d="M192.7,102.3c0,0,0.6,2.4,1.2,3.9c0.7,1.5,2.1,3.6,2.1,3.6l-1.5,0.7c0,0-0.6-2.5-1.3-4c-0.6-1.5-2-3.5-2-3.5
				L192.7,102.3z"/>
			<path class="st4" d="M192.3,122.8l3.8-1.4c0.5,0.3,1.4,0.4,1.4,0.5l-6.3,2.3c-0.9,0.3-2.5-0.4-2.9-1.4l-1.8-5
				c-0.4-1,0.4-2.6,1.3-3l8.3-3l7.9-2.8l0,0c1-0.4,2.5,0.2,3,1.4l1.8,5.1c0.4,1.2-0.3,2.5-1.4,2.9c0,0-1,0.4-1.6,0.6
				c-0.3,0.1-0.6-0.1-0.7-0.3c-0.1-0.3,0-0.6,0.3-0.7c0.7-0.2,1.5-1.1,1-2.3l-1.5-4.1c-0.4-1-1-1.6-2.4-1.1l-6.5,2.3l-6.5,2.3
				c-1,0.4-1.3,1.2-0.9,2.5l1.5,4.2C190.5,122.7,191.6,123,192.3,122.8z"/>
			<path class="st4" d="M201.4,116c0.1,0.4-0.2,0.7-0.7,0.8c-0.5,0.1-1.1,0.1-1.4,0.1c-0.3-0.1-0.5-0.4-0.6-0.7
				c-0.3-1-1.1-1.1-1.6-1c-0.5,0.1-1.3,0.7-1.1,1.7l0.9,3.4c0.3,1.2,1.2,1.2,1.8,1c0.4-0.1,1.2-0.6,0.9-1.6
				c-0.1-0.3-0.1-0.6,0.1-0.9c0.2-0.2,0.7-0.5,1.2-0.6c0.5-0.1,0.9-0.1,1,0.3c0,0.1,0,0.3,0,0.5c-0.1,0.5-1.2,2.7-3.1,3.3
				c-2.7,0.7-4.7-1.1-5.2-3c-0.5-1.7,0.5-4.3,3-5c1.9-0.5,4,0.8,4.3,1.2C201.3,115.7,201.4,115.9,201.4,116z"/>
			<path class="st4" d="M202.3,127.8c-0.6,0.1-0.1,1.1-0.4,2.6c-0.3,1.2-0.6,2.1-1.8,2.3c-1.9,0.3-3.8-1.9-4-2.9
				c-4.7,0.7-4.7,1.8-6.1,2c-0.3-1.7,0-2.1,0-2.1l5.9-0.9c-0.1-1.3,0.8-3.4,2.2-3.9c0.2-0.1,0.4-0.1,0.6-0.2c0.7-0.1,1.3,0.1,1.5,1
				l0.2,1.6c0.1,0.9-0.7,1.8-1.7,2l0.2,1.1c0.1,0.6,0.3,1.3,0.9,1.2c0.7-0.1,0.8-1.1,1-1.8c0.3-1.3,0-3.2,1.3-3.4
				c0.8-0.1,1.8,0.1,2,1.5c0.2,1.4-0.9,2.2-1.5,2.3c-0.2,0-0.3-0.1-0.4-0.3c0-0.1,0-0.3,0.1-0.4c0.2-0.2,0.4-0.4,0.4-0.8l-0.1-0.8
				C202.7,128.1,202.6,127.8,202.3,127.8z M199.2,128.3c0-0.1,0.1-0.2,0.1-0.4l-0.2-1.6c0-0.2-0.1-0.3-0.2-0.4c0,0-0.1-0.1-0.2-0.1
				c-0.1,0-0.2,0-0.2,0.1c0,0.1-0.1,0.2-0.1,0.4l0.3,2.1C198.7,128.5,199.1,128.4,199.2,128.3z"/>
			<path class="st4" d="M209,126.6c-0.3-0.2-0.5-0.2-0.9-0.2c-0.2,0-0.3,0.1-0.5,0.2c-0.2,0.1-0.4,0.4-0.4,0.9c0,0,0.1,1.2,0.2,1.8
				c0,0.4-0.5,1-1.1,1c-0.2,0-0.5,0-0.7-0.2c-0.3-0.3-0.3-0.4-0.4-0.9c-0.2-1.7,1.1-3.4,3-3.6c2.2-0.1,3.4,1.6,3.5,3.1
				c0.2,1.8-1.3,3.1-2.1,3.2c-0.3,0-0.4-0.1-0.4-0.3c0-0.2,0.1-0.4,0.2-0.5c0.2-0.2,0.3-0.5,0.3-0.9c-0.1-0.6-0.2-2.7-0.2-2.7
				C209.4,127,209.2,126.7,209,126.6z"/>
			<path class="st4" d="M193.3,134.3c-0.1-1,0.6-1.7,1.5-1.8c0.9-0.1,1.7,0.6,1.8,1.5c0.1,0.7-0.5,1.7-1.5,1.7
				C194.5,135.8,193.4,135.4,193.3,134.3z M194.6,134.4c0,0.3,0.2,0.4,0.4,0.4c0.1,0,0.3-0.1,0.3-0.4c0-0.1,0-0.2,0-0.5
				c0-0.3-0.3-0.4-0.4-0.3c-0.2,0-0.3,0.1-0.3,0.4C194.6,134,194.6,134.1,194.6,134.4z"/>
			<path class="st4" d="M205.1,138.3c0,0.4-0.4,0.6-0.9,0.6c-0.5,0-1.1-0.2-1.4-0.3c-0.3-0.2-0.4-0.5-0.4-0.8c0-1.1-0.8-1.3-1.3-1.3
				c-0.5,0-1.5,0.3-1.5,1.3l0,3.5c0,1.2,0.9,1.5,1.5,1.5c0.4,0,1.3-0.3,1.3-1.3c0-0.3,0-0.6,0.4-0.8c0.2-0.1,0.8-0.3,1.4-0.3
				c0.5,0,0.9,0.1,0.9,0.6c0,0.1,0,0.3-0.1,0.5c-0.2,0.5-1.8,2.3-3.8,2.3c-2.8,0-4.2-2.3-4.2-4.3c0-1.8,1.6-4,4.2-4
				c2,0,3.6,1.8,3.8,2.3C205,138,205.1,138.2,205.1,138.3z"/>
			<path class="st4" d="M189.7,139.9c0-2,1.8-3.2,3.2-3.3c1.7,0,3.2,1.4,3.3,3.2c0,1.5-1.2,3.2-3.2,3.3
				C191.7,143.2,189.7,142.2,189.7,139.9z M191.8,141c0,0.5,0.1,0.7,0.4,0.9c0.2,0.2,0.4,0.3,0.9,0.3c0,0,0.3,0,0.4-0.1
				c0.2-0.2,0.5-0.4,0.5-0.9l0-2.4c0-0.5-0.1-0.7-0.4-0.9c-0.2-0.2-0.4-0.3-0.9-0.3c0,0-0.3,0.1-0.4,0.1c-0.2,0.1-0.5,0.4-0.5,0.9
				L191.8,141z"/>
			<path class="st4" d="M205.2,149c0,1.5-1.2,4.1-4.2,4.1c-2.5,0-4.2-2.1-4.2-4.3c0-0.6,0-0.9,0.4-1.2c0.2-0.2,0.5-0.4,0.8-0.4
				c0.8,0,1.6,0.6,1.6,1.2c0,0.8,0,2.4,0,2.4c0,0.6,0.4,1,0.6,1.1c0.2,0.1,0.5,0.2,0.9,0.2c0.3,0,0.5,0,0.7-0.1
				c0.2-0.2,0.6-0.5,0.6-1.1l0-3.6c0-0.6-0.3-1.3-0.5-1.5c-0.8-0.8-1.7-0.3-1.7-0.8c0-0.3,0.2-0.4,0.4-0.4c0.4,0,1,0.2,1.5,0.4
				C203.5,145.3,205.2,146.7,205.2,149z"/>
			<path class="st4" d="M197,155.5c0-1,0.9-1.7,1.6-1.7c0.9,0,1.7,0.7,1.7,1.7c0,0.7-0.6,1.6-1.7,1.6
				C197.9,157.1,197,156.6,197,155.5z M198.6,154.8c0.1,0,0.3,0.1,0.3,0.4c0,0.3,0,0.4,0,0.5c0,0.3-0.2,0.4-0.3,0.4
				c-0.2,0-0.4-0.1-0.4-0.4c0-0.3,0-0.4,0-0.5C198.2,155,198.4,154.8,198.6,154.8z M202,155.5c0-1,0.7-1.7,1.6-1.7
				c0.9,0,1.7,0.7,1.7,1.7c0,0.7-0.6,1.6-1.7,1.6C203,157.1,202,156.6,202,155.5z M203.6,154.8c0.1,0,0.3,0.1,0.3,0.4
				c0,0.3,0,0.4,0,0.5c0,0.3-0.2,0.4-0.3,0.4c-0.2,0-0.4-0.1-0.4-0.4c0-0.3,0-0.4,0-0.5C203.2,154.9,203.4,154.8,203.6,154.8z"/>
			<path class="st4" d="M200.2,160.5c-0.3,0.3-0.4,0.7-0.4,1.3c1.1,0,1.9,0.7,1.9,1.7c0,0.9,0,1.1,0,2c0,1-0.7,1.7-1.8,1.7
				c-1.2,0-2.9-1.7-2.9-3.7c0-2,1.4-4.3,4-4.3c3,0,4.2,2.6,4.2,4.1c0,2.3-2,4-3,4c-0.3,0-0.4-0.2-0.4-0.5c0-0.3,0.1-0.6,0.2-0.6
				c0.3-0.2,0.4-0.5,0.4-1.1l0-3.6c0-0.6-0.4-1-0.6-1.1c-0.2-0.1-0.5-0.2-0.6-0.2C200.7,160.1,200.5,160.2,200.2,160.5z M200.4,163
				c0-0.3-0.2-0.4-0.4-0.4c-0.1,0-0.3,0.1-0.3,0.4c0,1.1,0,1.7,0,2.8c0,0.3,0.2,0.4,0.3,0.4c0.2,0,0.4-0.1,0.4-0.4
				C200.4,164.9,200.4,164,200.4,163z"/>
			<path class="st4" d="M192,180.5c-0.9,0-1.7-0.4-1.7-1.5c0-1.5,2.1-2.1,3.5-2.1c2.8,0,7.3,0,7.3,0c0.3,0,0.8-0.1,0.9-0.1
				c0.2-0.2,0.6-0.5,0.6-1.1l0-3.5c0-0.6-0.2-0.9-0.4-1.1c-0.3-0.2-0.6-0.4-1.1-0.4c-0.1,0-0.4,0.1-0.6,0.2
				c-0.2,0.2-0.5,0.4-0.6,0.9c0.5,0,0.7,0.1,0.9,0.4c0.2,0.2,0.4,0.6,0.4,1.1l0,1.2c0,0.6-0.4,1-0.6,1.1c-0.2,0.1-0.2,0.1-0.4,0.1
				l-1.8,0c-0.6,0-1.3-0.8-1.3-1.8c0-2.8,2.4-4.2,4.3-4.2c1.6,0,4,1.5,4,4.2c-0.1,2.5-2.2,4-4.2,4l-7,0c-0.5,0-1,0.5-1,0.9
				c0,0.4,0.2,0.9,0.7,1.3C193.2,180.3,192.6,180.5,192,180.5z M200.4,173.1c0-0.3-0.1-0.5-0.3-0.5c-0.2,0-0.4,0.1-0.4,0.5l0,1.1
				c0,0.4,0.1,0.5,0.4,0.5c0.2,0,0.3-0.2,0.3-0.5L200.4,173.1z"/>
			<path class="st4" d="M197,180.9c0-1,0.9-1.7,1.6-1.7c0.9,0,1.7,0.7,1.7,1.7c0,0.7-0.6,1.6-1.7,1.6C198,182.5,197,182,197,180.9z
				 M198.6,180.2c0.1,0,0.3,0.1,0.3,0.4c0,0.3,0,0.4,0,0.5c0,0.3-0.2,0.4-0.3,0.4c-0.2,0-0.4-0.1-0.4-0.4c0-0.3,0-0.4,0-0.5
				C198.2,180.4,198.4,180.2,198.6,180.2z M202,180.9c0-1,0.7-1.7,1.6-1.7c0.9,0,1.7,0.7,1.7,1.7c0,0.7-0.6,1.6-1.7,1.6
				C203,182.5,202,182,202,180.9z M203.6,180.2c0.1,0,0.3,0.1,0.3,0.4c0,0.3,0,0.4,0,0.5c0,0.3-0.2,0.4-0.3,0.4
				c-0.2,0-0.4-0.1-0.4-0.4c0-0.3,0-0.4,0-0.5C203.2,180.3,203.5,180.2,203.6,180.2z"/>
			<path class="st4" d="M202.5,197.9l0-4.2c0-0.2,0-0.3-0.1-0.4c0,0-0.1-0.1-0.2-0.1c-0.1,0-0.3,0.2-0.5,0.2c-0.2,0-0.5-0.2-0.5-0.4
				c0-0.7,1-1.3,1.5-1.3c0.4,0,0.8,0.2,1.3,0.7c0.8,0.9,1.2,1.6,1.2,3.3c0,0.8-0.4,2.4-1.7,3.3c1,0.7,1.7,1.5,1.7,3.5
				c0,1.7-1.8,4-4.1,4c-2.4,0-4.2-2.1-4.2-4.2c0-0.6,0.1-1.1,0.4-1.4c0.3-0.3,0.9-0.5,1.5-0.5c1.2,0,2.5,0.5,2.5,1.5
				c0,0.4,0,0.6,0,1.1c0,1-1.6,1.3-1.6,1.3c0,0.9,0.4,1,0.6,1.1c0.2,0.1,0.7,0.2,0.8,0.2c0.1,0,0.6-0.1,0.7-0.2
				c0.2-0.2,0.6-0.5,0.6-1.1l0-3.6c0-0.6-0.2-0.9-0.4-1.1c-0.3,0-0.4,0-0.5-0.1c-0.2-0.2-0.2-0.4-0.4-0.4c-0.2,0-0.3,0.1-0.4,0.4
				c-0.1,0.2-0.1,0.2-0.6,0.2c-0.2,0-0.5-0.1-0.9-0.3c-1.2-0.6-2.2-2.1-2.2-3.5c0-2,2-4,3-4c0.3,0,0.4,0.2,0.4,0.5
				c0,0.3-0.1,0.6-0.2,0.6c-0.3,0.2-0.5,0.4-0.5,1l0,4.2c0,0.3,0.3,0.4,0.4,0.4c0.2,0,0.4-0.1,0.4-0.4c0-0.3,0-0.6,0-0.9
				c0-0.7,0.1-1.3,0.6-1.3c0.5,0,0.6,0.5,0.6,1.2c0,0.4,0,0.7,0,1.1c0,0.3,0.2,0.4,0.4,0.4C202.3,198.3,202.5,198.3,202.5,197.9z
				 M200.4,202.8c0,0.3-0.2,0.4-0.4,0.4c-0.1,0-0.3-0.1-0.3-0.4c0-0.4,0-0.5,0-0.5v0c0,0,0-0.1,0-0.5c0-0.3,0.2-0.4,0.3-0.4
				c0.2,0,0.4,0.1,0.4,0.4C200.4,202.7,200.4,201.8,200.4,202.8z"/>
			<path class="st4" d="M197,212.7c0-1.8,1.6-4,4.2-4c0.4,0,0.6,0,0.6,0l-1.4,0c0,0,0.2,0,0.8,0c2,0,3.6,1.8,3.8,2.3
				c0.1,0.2,0.1,0.3,0.1,0.5c0,0.4-0.4,0.6-0.9,0.6c-0.5,0-1.1-0.2-1.4-0.3c-0.3-0.2-0.4-0.5-0.4-0.8c0-0.8-0.4-1-0.6-1.2
				c-0.2-0.1-0.4-0.2-0.6-0.2c-0.3,0-0.7,0.1-0.9,0.2c-0.2,0.2-0.6,0.5-0.6,1.1l0,3.5c0,0.6,0.2,0.9,0.4,1.1
				c0.2,0.2,0.4,0.3,0.6,0.3l0-1.3c0-1,1.4-1.2,1.9-1.3c0.5-0.1,0.6-0.2,1.2-0.2c0.8,0,1.3,0.1,1.3,0.7c0,0.1,0,0.3-0.1,0.5
				c-0.3,1.1-1.9,2.5-3.9,2.5C198.4,217,197,214.7,197,212.7z M202.2,214.4c0.1,0,0.3,0.1,0.3,0.4c0,0.3,0,0.4,0,0.5
				c0,0.3-0.2,0.4-0.3,0.4c-0.2,0-0.4-0.1-0.4-0.4c0-0.3,0-0.4,0-0.5C201.8,214.5,202,214.4,202.2,214.4z"/>
			<path class="st4" d="M189.8,213.1c0-2,1.8-3.2,3.2-3.2c1.7,0,3.2,1.4,3.2,3.2c0,1.5-1.3,3.2-3.2,3.2
				C191.8,216.3,189.8,215.3,189.8,213.1z M191.9,214.2c0,0.5,0.1,0.7,0.4,0.9c0.2,0.2,0.4,0.3,0.9,0.3c0,0,0.3,0,0.4-0.1
				c0.2-0.2,0.5-0.4,0.5-0.9l0-2.4c0-0.5-0.1-0.7-0.4-0.9c-0.2-0.2-0.4-0.3-0.9-0.3c0,0-0.3,0.1-0.4,0.1c-0.2,0.1-0.5,0.4-0.5,0.9
				L191.9,214.2z"/>
			<path class="st4" d="M206.3,216.2c-0.1,0.2-0.2,0.2-0.3,0.2s-0.2-0.1-0.2-0.3c0-0.1,0-0.2,0-0.2c0.4-1.4,3.1-5.5,5-5.8l0,2.5
				C210.2,212.6,207.5,214.4,206.3,216.2z"/>
			<path class="st4" d="M193.7,218.2c0-1,0.7-1.7,1.6-1.7c0.9,0,1.7,0.7,1.7,1.7c0,0.7-0.6,1.6-1.7,1.6
				C194.7,219.8,193.7,219.3,193.7,218.2z M195,218.4c0,0.3,0.2,0.4,0.4,0.4c0.1,0,0.3-0.1,0.3-0.4c0-0.1,0-0.2,0-0.5
				c0-0.3-0.2-0.4-0.3-0.4c-0.2,0-0.4,0.1-0.4,0.4C195,218,195,218.1,195,218.4z"/>
		</g>
	</g>
	<g>
		<path class="st0" d="M37,254.2c3,0,5.5,2.5,5.5,5.5c0,3,0.1,4.5,0,7.7c0.1,1.2,1,2.2,2.3,2.2c1.2,0,2.2-1,2.2-2.2
			c0-1.2,0-6.5,0-7.7c0-1.2-1-2.2-2.2-2.2c-1.2,0-0.6-0.1-1,0c-0.1-1.3,0.6-2,1-3.2c3.1,0,5.6,2.5,5.5,5.5c0,3,0.1,4.4,0,7.7
			c-0.1,3-2.5,5.4-5.5,5.4c-1.8,0-3-0.5-3.8-1.7c-1,1-2.4,1.6-3.9,1.6c-3.1,0-5.4-2.4-5.4-5.4c0-0.7,3.2-1.8,3.2-1.8
			c0,0.6,0,1.2,0.1,1.8c0.1,1.2,0.9,2.2,2.2,2.2c1.2,0,2.1-1,2.2-2.2c0-1.2,0-6.5,0-7.7c0-1.2-1-2.2-2.2-2.2c-1.2,0-2.2,1-2.2,2.2
			c0,0.5,0.1,1.2-0.1,2.2c0,0-3.8-0.9-3.2-2.1C31.6,256.7,34.1,254.2,37,254.2z"/>
		<path class="st0" d="M61.2,273v10.9h-3.1v-11h-1.7c-3-0.5-2.3-3.6-2.3-4.2c-0.2-3.4,1.5-4.5,3.4-4.2c1-0.4,3.5,1.7,3.7,5.1
			c0.4,0,1-2.7-0.4-4.5l-4.2-5.1c-2.6-3.2-0.4-5.6,1.9-5.8h2.4c1.6,0,3.3,0.8,3.5,3.1l-2.7,1.3c0.2-1.3-0.7-1.2-1.4-1.2
			c0,0-2.2-0.2-0.5,1.7l3.3,3.8c2,2.3,1.7,6.8,1.7,6.8c0,1.3-0.3,2.5-1.9,3.2L61.2,273z M58.1,269.7c0.4,0,0.1-2.8-0.8-2.4
			c-0.7,0.3-0.4,2.1,0,2.4H58.1z"/>
		<path class="st0" d="M60,253.9c-3,0-5.4-2.5-5.4-5.5c0-3.1,2.4-5.4,5.4-5.4c2.1,0,3.8,1.1,4.7,2.7c0.2,0.3,0.5,1.1,0.7,1.9
			l-2.2,1.4c-0.2-0.7-0.5-1.2-1.1-1.7c-0.7-0.6-1.2-1-2.1-1c-1.2,0-2.2,1-2.2,2.2c0,1.1,0.7,1.8,2.2,2.2c0,0,1.1,0.2,1.8,0l0.8,2.4
			C61.7,253.7,61,253.9,60,253.9z"/>
		<path class="st0" d="M66.3,280.3c-0.8,0-2-0.6-2-1.4c0-0.8,0-1.7,0-2.6c0-0.9,0.6-1.8,2.1-1.8c1.7,0,1.9,0.9,2,1.8
			c0,0.8,0,1.6,0,2.5C68.3,279.6,67.6,280.3,66.3,280.3z M66.7,276.9c0-0.2-0.2-0.4-0.4-0.4c-0.2,0-0.4,0.2-0.4,0.4
			c0,0.1,0,1.1,0,1.3c0,0.2,0.2,0.4,0.4,0.4c0.2,0,0.4-0.1,0.4-0.4C66.7,277.7,66.7,277.1,66.7,276.9z"/>
		<path class="st0" d="M84.8,266.5H73c-0.2-0.2,0-3.2,0-3.2h11.8C84.8,263.3,84.8,266.5,84.8,266.5z"/>
		<path class="st0" d="M106.8,269.6c1.2,0,2.2-1,2.2-2.2c0-1.2,0-6.5,0-7.8c0-1.2-1-2.2-2.2-2.2c-1.2,0-2.2,0.9-2.3,2.2
			c0.1,3.3,0,4.8,0,7.8c0,3-2.5,5.4-5.5,5.5c-3,0-5.4-2.5-5.4-5.5c0-3.1,0-4.8,0-7.8c0-3,2.4-5.4,5.4-5.4c1.5,0,2.9,0.6,3.9,1.6
			c0.8-1.1,2.1-1.6,3.8-1.6c3.1,0,5.4,2.5,5.5,5.4c0.1,3.2,0,4.8,0,7.7c0,3-2.5,5.5-5.5,5.5c-0.5,0-1.4-2-1.3-3.3
			C105.9,269.7,105.6,269.6,106.8,269.6z M96.9,267.5c0,1.2,1,2.2,2.2,2.2c1.2,0,2.2-1,2.2-2.2c0-1.2,0-6.5,0-7.7
			c0-1.2-1-2.2-2.2-2.2c-1.2,0-2.1,0.9-2.2,2.2C96.6,262.5,96.9,266.2,96.9,267.5z"/>
		<path class="st0" d="M122,284.2l-2.4,0c-1.1,0-1.8-0.1-2.6-0.9c-1.1-1.1-0.8-2.6-0.8-4.3v-11.5c0-1.3,2.9-3.1,3.1-1.7
			c0.1,0.6,0,0.7,0,1.7c0,1.2,0.9,2.2,2.2,2.2c1.2,0,2.2-1,2.2-2.2c0-1.2,0-6.5,0-7.7c0-1.2-1-2.2-2.2-2.2c-1.2,0-2.2,1-2.2,2.2
			c0,0.7-0.2,1.1,0,1.7c-1.4,0-3.2-0.7-3.2-1.7c0-3,2.5-5.5,5.4-5.5c3.1,0,5.6,2.5,5.5,5.5c0,3,0,4.5,0,7.8c0,1.2,1,2.2,2.2,2.2
			c1.2,0,2.2-1,2.2-2.2c0-1.2,0-6.5,0-7.8c0-1.2-1-2.2-2.2-2.2c-1.2,0,0.3-2.7,1.8-3c2.2,0.7,3.7,2.8,3.7,5.2c0,3,0.1,4.5,0,7.7
			c-0.1,3-2.5,5.4-5.5,5.4c-1.8,0-3-0.5-3.8-1.6c-1,1-1.8,1.6-3.3,1.6c-0.7,0-1.9-0.4-2.5-1.3v6c0,1.4-0.4,2.8,1.2,3.2
			c1,0.3,2.7,0.1,2.7,0.1c2,0.1,5.4,0,6,0c1.2,0,2.2-1,2.2-2.2c0-1.2,0.1-1.2,0-1.6c1.4-0.2,3.2,1,3.2,1.6c0,3-2.5,5.4-5.5,5.3
			c-3,0-9.7,0-9.7,0L122,284.2z"/>
		<path class="st0" d="M129.7,253.9c-3,0-5.4-2.5-5.4-5.5c0-3.1,2.4-5.4,5.4-5.4c2.1,0,3.8,1.1,4.7,2.7c0.2,0.3,0.5,1.1,0.7,1.9
			l-2.2,1.4c-0.2-0.7-0.5-1.2-1.1-1.7c-0.7-0.6-1.2-1-2.1-1c-1.2,0-2.2,1-2.2,2.2c0,1.1,0.7,1.8,2.2,2.2c0,0,1.1,0.2,1.8,0l0.8,2.4
			C131.4,253.7,130.7,253.9,129.7,253.9z"/>
		<path class="st0" d="M151.7,266.5H140c-0.2-0.2,0-3.2,0-3.2h11.8C151.7,263.3,151.8,266.5,151.7,266.5z"/>
		<path class="st0" d="M168.1,254.2c1.9,0.8,3.2,2.8,3.3,5c0,3,0.2,5.1,0,8.2c-0.2,3-2,5.4-5.5,5.5c-3,0-5.4-2.5-5.4-5.5
			c0-3.1,0-5.2,0-8.2c0-2.3,1.3-4.1,3.2-5c0.7-0.3,1.6,2.9,1.4,3c-0.8,0.3-1.4,1.1-1.4,2.1c0,1.1,0,6.9,0,8.1c0,1.2,1,2.2,2.2,2.2
			c1.2,0,2.1-1,2.2-2.2c0-3,0-6.9,0-8.1c0-0.9-0.6-1.7-1.4-2.1C166.6,255.8,167.4,253.9,168.1,254.2z"/>
		<path class="st0" d="M166.8,273c3,0,5.5,2.5,5.5,5.4c0,3-2.5,5.5-5.5,5.5c-3,0-5.4-2.6-5.4-5.5C161.4,275.4,163.7,273,166.8,273z
			 M166.8,280.9c1.3,0,2.4-1.1,2.4-2.4c0-1.3-1.1-2.4-2.4-2.4c-1.3,0-2.4,1-2.4,2.4C164.4,279.7,165.5,280.9,166.8,280.9z"/>
		<path class="st0" d="M176,269.7c1.4,0.2,2.7-0.6,2.7-2.1v-8.1c0-1.2-0.9-2.1-2.1-2.1c-1.2,0-2.1,1-2.1,2.1l-2.9-1.8
			c0.6-2.6,3.4-3.5,5-3.5c2.9,0,5.4,2.4,5.4,5.3v8.1c0,3.3-2.7,5.4-5.2,5.4L176,269.7z"/>
		<path class="st0" d="M186.6,261.3c-0.8,0-2-0.6-2-1.4c0-0.9,0-1.7,0-2.6c0-0.8,0.4-1.8,2-1.7c1.3,0,2.1,0.9,2.1,1.7
			c0,0.9,0,1.7,0,2.6C188.6,260.7,187.9,261.3,186.6,261.3z M186.6,271.7c-0.8,0-2-0.6-2-1.4c0-0.9,0-1.7,0-2.6c0-0.9,0.4-1.8,2-1.8
			c1.3,0,2,0.9,2.1,1.8c0,0.8,0,1.7,0,2.6C188.6,271.1,187.9,271.7,186.6,271.7z M187,257.8c0-0.2-0.2-0.4-0.4-0.4s-0.4,0.2-0.4,0.4
			c0,0.2,0,1.1,0,1.3c0,0.2,0.2,0.4,0.4,0.4s0.4-0.2,0.4-0.4C187,258.7,187,258,187,257.8z M187,268.3c0-0.2-0.2-0.4-0.4-0.4
			s-0.4,0.2-0.4,0.4c0,0.2,0,1.1,0,1.3c0,0.2,0.2,0.4,0.4,0.4s0.4-0.2,0.4-0.4C187,269,187,268.5,187,268.3z"/>
	</g>
</g>
</svg>
